<svg width="420" height="117" viewBox="0 0 420 117" fill="none" xmlns="http://www.w3.org/2000/svg">
<g clip-path="url(#clip0_1_2)">
<path d="M143.52 74V49.76H135.44V45.44H156.56V49.76H148.48V74H143.52ZM160.744 74V70.84L166.744 69.88V56.44L161.664 55.8V52.32H170.584L171.264 56.08H171.504C172.224 54.7733 173.078 53.76 174.064 53.04C175.078 52.2933 176.371 51.92 177.944 51.92C178.558 51.92 179.211 51.9733 179.904 52.08C180.598 52.1867 181.278 52.3867 181.944 52.68L180.624 57.24C180.224 57.0533 179.731 56.8933 179.144 56.76C178.584 56.6267 177.984 56.56 177.344 56.56C176.144 56.56 175.118 56.8667 174.264 57.48C173.438 58.0933 172.798 58.92 172.344 59.96C171.918 61 171.704 62.1467 171.704 63.4V69.88L177.624 70.84V74H160.744ZM193.329 74.4C190.929 74.4 189.089 73.7333 187.809 72.4C186.555 71.0667 185.929 69.12 185.929 66.56V52.32H190.929V65.44C190.929 66.9867 191.209 68.1867 191.769 69.04C192.355 69.8933 193.395 70.32 194.889 70.32C196.249 70.32 197.289 70.0267 198.009 69.44C198.755 68.8267 199.275 67.96 199.569 66.84C199.862 65.72 200.009 64.4 200.009 62.88V52.32H205.009V74H201.169L200.369 71.16H200.089C199.635 71.88 199.062 72.48 198.369 72.96C197.702 73.44 196.942 73.8 196.089 74.04C195.262 74.28 194.342 74.4 193.329 74.4ZM221.913 74.4C219.593 74.4 217.646 74 216.073 73.2C214.526 72.4 213.353 71.1867 212.553 69.56C211.78 67.9333 211.393 65.88 211.393 63.4C211.393 60.7867 211.806 58.64 212.633 56.96C213.486 55.2533 214.713 53.9867 216.313 53.16C217.94 52.3333 219.886 51.92 222.153 51.92C223.3 51.92 224.446 52.0267 225.593 52.24C226.766 52.4533 227.873 52.8133 228.913 53.32L227.473 57.28C226.486 56.8533 225.566 56.56 224.713 56.4C223.86 56.24 223.1 56.16 222.433 56.16C221.073 56.16 219.94 56.4267 219.033 56.96C218.153 57.4667 217.5 58.2533 217.073 59.32C216.646 60.36 216.433 61.6667 216.433 63.24C216.433 64.8667 216.66 66.2 217.113 67.24C217.566 68.2533 218.233 69 219.113 69.48C220.02 69.9333 221.126 70.16 222.433 70.16C223.393 70.16 224.38 70.04 225.393 69.8C226.406 69.5333 227.406 69.12 228.393 68.56V73C227.38 73.5067 226.326 73.8667 225.233 74.08C224.166 74.2933 223.06 74.4 221.913 74.4ZM236.217 74V43.6H241.177V57.88C241.177 58.4133 241.164 58.9733 241.137 59.56C241.111 60.12 241.071 60.68 241.017 61.24C240.991 61.8 240.951 62.3867 240.897 63H240.977C241.377 62.3867 241.804 61.8 242.257 61.24C242.737 60.6533 243.217 60.0667 243.697 59.48L249.977 52.32H255.777L247.577 61.44L256.297 74H250.857L244.417 64.56L241.177 67.28V74H236.217ZM286.146 74V45.44H303.666V49.76H290.986V58.2H303.026V62.52H290.986V74H286.146ZM310.211 74V70.84L317.651 69.88V47.72L311.171 46.76V43.6H322.611V69.88L329.331 70.84V74H310.211ZM346.115 74.4C343.635 74.4 341.528 73.9733 339.795 73.12C338.062 72.24 336.728 70.96 335.795 69.28C334.888 67.6 334.435 65.5467 334.435 63.12C334.435 60.8267 334.835 58.84 335.635 57.16C336.462 55.48 337.648 54.1867 339.195 53.28C340.742 52.3733 342.568 51.92 344.675 51.92C346.675 51.92 348.368 52.3333 349.755 53.16C351.168 53.96 352.248 55.12 352.995 56.64C353.742 58.1333 354.115 59.9333 354.115 62.04V64.44H339.315C339.368 65.8267 339.702 66.96 340.315 67.84C340.928 68.6933 341.768 69.32 342.835 69.72C343.902 70.12 345.088 70.32 346.395 70.32C347.488 70.32 348.608 70.1867 349.755 69.92C350.902 69.6267 352.102 69.2267 353.355 68.72V72.84C352.155 73.4267 350.942 73.8267 349.715 74.04C348.488 74.28 347.288 74.4 346.115 74.4ZM349.515 60.92C349.515 59.8267 349.302 58.9067 348.875 58.16C348.475 57.3867 347.928 56.8 347.235 56.4C346.542 55.9733 345.715 55.76 344.755 55.76C343.315 55.76 342.115 56.2133 341.155 57.12C340.195 58.0267 339.622 59.2933 339.435 60.92H349.515ZM370.899 74.4C368.419 74.4 366.313 73.9733 364.579 73.12C362.846 72.24 361.513 70.96 360.579 69.28C359.673 67.6 359.219 65.5467 359.219 63.12C359.219 60.8267 359.619 58.84 360.419 57.16C361.246 55.48 362.433 54.1867 363.979 53.28C365.526 52.3733 367.353 51.92 369.459 51.92C371.459 51.92 373.153 52.3333 374.539 53.16C375.953 53.96 377.033 55.12 377.779 56.64C378.526 58.1333 378.899 59.9333 378.899 62.04V64.44H364.099C364.153 65.8267 364.486 66.96 365.099 67.84C365.713 68.6933 366.553 69.32 367.619 69.72C368.686 70.12 369.873 70.32 371.179 70.32C372.273 70.32 373.393 70.1867 374.539 69.92C375.686 69.6267 376.886 69.2267 378.139 68.72V72.84C376.939 73.4267 375.726 73.8267 374.499 74.04C373.273 74.28 372.073 74.4 370.899 74.4ZM374.299 60.92C374.299 59.8267 374.086 58.9067 373.659 58.16C373.259 57.3867 372.713 56.8 372.019 56.4C371.326 55.9733 370.499 55.76 369.539 55.76C368.099 55.76 366.899 56.2133 365.939 57.12C364.979 58.0267 364.406 59.2933 364.219 60.92H374.299ZM397.644 74.4C395.91 74.4 394.417 74.16 393.164 73.68C391.937 73.1733 390.99 72.3733 390.324 71.28C389.657 70.16 389.324 68.68 389.324 66.84V56.44H384.004V53.24L389.604 52.28L390.484 46.76H394.284V52.32H402.564V56.44H394.284V66.24C394.284 67.28 394.444 68.0933 394.764 68.68C395.11 69.2667 395.59 69.68 396.204 69.92C396.844 70.16 397.59 70.28 398.444 70.28C399.11 70.28 399.79 70.2267 400.484 70.12C401.204 69.9867 402.017 69.84 402.924 69.68V73.6C402.044 73.8667 401.164 74.0667 400.284 74.2C399.404 74.3333 398.524 74.4 397.644 74.4Z" fill="black"/>
<path d="M38.5714 78.1143H34.9143C30.8747 78.1143 27.6 74.8396 27.6 70.8V37.8857C27.6 33.8461 30.8747 30.5714 34.9143 30.5714H67.8286C71.8681 30.5714 75.1429 33.8461 75.1429 37.8857V70.8C75.1429 74.8396 71.8681 78.1143 67.8286 78.1143H64.1714M80.6286 78.1143H78.8C76.7802 78.1143 75.1429 76.4769 75.1429 74.4571V43.3714C75.1429 41.3516 76.7802 39.7143 78.8 39.7143H88.0137C89.1247 39.7143 90.1754 40.2193 90.8695 41.0868L103.599 56.9983C104.117 57.6467 104.4 58.4524 104.4 59.2828V74.4571C104.4 76.4769 102.763 78.1143 100.743 78.1143M60.5143 76.2857C60.5143 81.3352 56.4209 85.4286 51.3714 85.4286C46.322 85.4286 42.2286 81.3352 42.2286 76.2857C42.2286 71.2362 46.322 67.1428 51.3714 67.1428C56.4209 67.1428 60.5143 71.2362 60.5143 76.2857ZM98.9143 76.2857C98.9143 81.3352 94.8209 85.4286 89.7714 85.4286C84.722 85.4286 80.6286 81.3352 80.6286 76.2857C80.6286 71.2362 84.722 67.1428 89.7714 67.1428C94.8209 67.1428 98.9143 71.2362 98.9143 76.2857Z" stroke="black" stroke-width="5" stroke-linecap="round"/>
</g>
<defs>
<clipPath id="clip0_1_2">
<rect width="420" height="117" fill="white"/>
</clipPath>
</defs>
</svg>
